<svg width="1440.000000" height="1072.000000" viewBox="0 0 1440 1072" fill="none" xmlns="http://www.w3.org/2000/svg" xmlns:xlink="http://www.w3.org/1999/xlink">
	<desc>
			Created with Pixso.
	</desc>
	<defs/>
	<path id="Vector" d="M-0.5 101.86L59.76 101.86C120.02 101.86 240.54 101.86 358.98 72.6C479.5 43.34 600.02 -13.1 720.54 1.53C838.98 16.16 959.5 101.86 1080.02 160.39C1200.54 218.92 1318.98 248.18 1379.24 260.73L1439.5 275.36L1439.5 455.15L1379.24 455.15C1318.98 455.15 1200.54 455.15 1080.02 455.15C959.5 455.15 838.98 455.15 720.54 455.15C600.02 455.15 479.5 455.15 358.98 455.15C240.54 455.15 120.02 455.15 59.76 455.15L-0.5 455.15L-0.5 101.86Z" fill="#AEEBF3" fill-opacity="1.000000" fill-rule="evenodd"/>
	<path id="Vector" d="M-0.5 378.15L59.5 372.15C119.5 366.15 239.5 354.15 359.5 306.15C479.5 258.15 599.5 174.15 719.5 174.15C839.5 174.15 959.5 258.15 1079.5 264.15C1199.5 270.15 1319.5 198.15 1379.5 162.15L1439.5 126.15L1439.5 630.15L1379.5 630.15C1319.5 630.15 1199.5 630.15 1079.5 630.15C959.5 630.15 839.5 630.15 719.5 630.15C599.5 630.15 479.5 630.15 359.5 630.15C239.5 630.15 119.5 630.15 59.5 630.15L-0.5 630.15L-0.5 378.15Z" fill="#A0C4E5" fill-opacity="1.000000" fill-rule="evenodd"/>
	<path id="Vector" d="M-0.5 418.15L59.5 412.15C119.5 406.15 239.5 394.15 359.5 346.15C479.5 298.15 599.5 214.15 719.5 214.15C839.5 214.15 959.5 298.15 1079.5 304.15C1199.5 310.15 1319.5 238.15 1379.5 202.15L1439.5 166.15L1439.5 700.15L1379.5 700.15C1319.5 700.15 1199.5 700.15 1079.5 700.15C959.5 700.15 839.5 700.15 719.5 700.15C599.5 700.15 479.5 700.15 359.5 700.15C239.5 700.15 119.5 700.15 59.5 700.15L-0.5 700.15L-0.5 418.15Z" fill="#3093EE" fill-opacity="1.000000" fill-rule="evenodd"/>
	<path id="Vector" d="M59.47 622.15L-0.5 651.15L-0.5 824.15L0.05 824.15L-0.47 929.98L47.26 938.53C50.24 938.93 53.4 939.37 56.75 939.83C106.93 946.76 196.56 959.14 288.15 945.95C313.01 942.29 337.88 936.81 362.75 931.32C433.53 915.71 504.31 900.1 574.88 926.59C612.3 940.64 649.98 967.17 687.73 993.75C746.18 1034.89 804.79 1076.16 862.86 1071.39C922.6 1067.79 982.57 1015.49 1042.54 963.19C1078.53 931.81 1114.51 900.43 1150.43 879.57C1245.71 823.43 1338.66 836.13 1387.59 842.82C1388.95 843 1390.27 843.18 1391.56 843.36L1439.28 851.91L1439.5 808.27L1438.85 808.27L1438.85 608.15L1378.88 630.15C1377.72 630.55 1376.55 630.96 1375.35 631.38C1314.29 652.78 1196.65 694.01 1079.01 687.15C986.33 681.74 893.64 645.88 800.95 610.02C773.69 599.47 746.43 588.92 719.17 579.15C599.23 536.15 479.28 507.15 359.34 522.15C244.4 535.56 129.47 589.38 67.3 618.48C64.59 619.75 61.98 620.98 59.47 622.15Z" fill="#0038C1" fill-opacity="1.000000" fill-rule="evenodd"/>
</svg>
