<svg width="16.000000" height="16.000000" viewBox="0 0 16 16" fill="none" xmlns="http://www.w3.org/2000/svg" xmlns:xlink="http://www.w3.org/1999/xlink">
	<desc>
			Created with Pixso.
	</desc>
	<defs/>
	<path id="Vector" d="M15.25 7.54C15.25 3.26 11.78 -0.21 7.5 -0.21C3.22 -0.21 -0.25 3.26 -0.25 7.54C-0.25 11.41 2.58 14.62 6.29 15.2L6.29 9.78L4.32 9.78L4.32 7.54L6.29 7.54L6.29 5.84C6.29 3.89 7.44 2.82 9.21 2.82C10.06 2.82 10.95 2.97 10.95 2.97L10.95 4.88L9.97 4.88C9.01 4.88 8.71 5.48 8.71 6.09L8.71 7.54L10.86 7.54L10.51 9.78L8.71 9.78L8.71 15.2C12.41 14.62 15.25 11.41 15.25 7.54Z" fill="#FFFFFF" fill-opacity="1.000000" fill-rule="nonzero"/>
</svg>
