<svg width="14.000000" height="16.000000" viewBox="0 0 14 16" fill="none" xmlns="http://www.w3.org/2000/svg" xmlns:xlink="http://www.w3.org/1999/xlink">
	<desc>
			Created with Pixso.
	</desc>
	<defs/>
	<path id="Vector" d="M6.5 3.95C4.51 3.95 2.91 5.55 2.91 7.54C2.91 9.53 4.51 11.13 6.5 11.13C8.49 11.13 10.09 9.53 10.09 7.54C10.09 5.55 8.49 3.95 6.5 3.95ZM6.5 9.87C5.22 9.87 4.17 8.83 4.17 7.54C4.17 6.25 5.21 5.21 6.5 5.21C7.79 5.21 8.83 6.25 8.83 7.54C8.83 8.83 7.78 9.87 6.5 9.87ZM11.08 3.8C11.08 4.27 10.7 4.64 10.24 4.64C9.77 4.64 9.4 4.26 9.4 3.8C9.4 3.34 9.78 2.96 10.24 2.96C10.7 2.96 11.08 3.34 11.08 3.8ZM13.45 4.65C13.4 3.53 13.14 2.54 12.32 1.72C11.5 0.9 10.51 0.64 9.39 0.59C8.23 0.52 4.77 0.52 3.61 0.59C2.49 0.64 1.5 0.9 0.68 1.71C-0.15 2.53 -0.4 3.53 -0.46 4.65C-0.52 5.81 -0.52 9.27 -0.46 10.43C-0.4 11.55 -0.15 12.54 0.68 13.36C1.5 14.18 2.49 14.44 3.61 14.49C4.77 14.56 8.23 14.56 9.39 14.49C10.51 14.44 11.5 14.18 12.32 13.36C13.14 12.54 13.4 11.55 13.45 10.43C13.52 9.27 13.52 5.81 13.45 4.65ZM11.96 11.67C11.72 12.28 11.24 12.75 10.63 13C9.71 13.36 7.52 13.28 6.5 13.28C5.48 13.28 3.29 13.36 2.37 13C1.76 12.76 1.29 12.28 1.04 11.67C0.68 10.75 0.76 8.56 0.76 7.54C0.76 6.52 0.68 4.33 1.04 3.41C1.28 2.8 1.76 2.33 2.37 2.08C3.29 1.71 5.48 1.8 6.5 1.8C7.52 1.8 9.71 1.72 10.63 2.08C11.24 2.32 11.71 2.8 11.96 3.41C12.33 4.33 12.24 6.52 12.24 7.54C12.24 8.56 12.33 10.75 11.96 11.67Z" fill="#FFFFFF" fill-opacity="1.000000" fill-rule="nonzero"/>
</svg>
