<svg width="14.000000" height="16.000000" viewBox="0 0 14 16" fill="none" xmlns="http://www.w3.org/2000/svg" xmlns:xlink="http://www.w3.org/1999/xlink">
	<desc>
			Created with Pixso.
	</desc>
	<defs/>
	<path id="Vector" d="M12.5 0.54L0.49 0.54C-0.06 0.54 -0.5 1 -0.5 1.55L-0.5 13.53C-0.5 14.09 -0.06 14.54 0.49 14.54L12.5 14.54C13.05 14.54 13.5 14.09 13.5 13.53L13.5 1.55C13.5 1 13.05 0.54 12.5 0.54ZM3.73 12.54L1.65 12.54L1.65 5.86L3.73 5.86L3.73 12.54L3.73 12.54ZM2.69 4.95C2.03 4.95 1.49 4.41 1.49 3.75C1.49 3.08 2.03 2.54 2.69 2.54C3.35 2.54 3.89 3.08 3.89 3.75C3.89 4.41 3.36 4.95 2.69 4.95ZM11.51 12.54L9.43 12.54L9.43 9.29C9.43 8.52 9.42 7.52 8.35 7.52C7.27 7.52 7.11 8.36 7.11 9.24L7.11 12.54L5.03 12.54L5.03 5.86L7.02 5.86L7.02 6.77L7.05 6.77C7.33 6.25 8.01 5.7 9.02 5.7C11.12 5.7 11.51 7.08 11.51 8.88L11.51 12.54Z" fill="#FFFFFF" fill-opacity="1.000000" fill-rule="nonzero"/>
</svg>
