<svg width="16.000000" height="16.000000" viewBox="0 0 16 16" fill="none" xmlns="http://www.w3.org/2000/svg" xmlns:xlink="http://www.w3.org/1999/xlink">
	<desc>
			Created with Pixso.
	</desc>
	<defs/>
	<path id="Vector" d="M13.85 4.28C13.86 4.43 13.86 4.57 13.86 4.71C13.86 9.05 10.56 14.04 4.53 14.04C2.67 14.04 0.95 13.5 -0.5 12.57C-0.24 12.6 0.01 12.61 0.29 12.61C1.82 12.61 3.23 12.09 4.36 11.21C2.92 11.18 1.71 10.23 1.29 8.93C1.5 8.96 1.7 8.98 1.91 8.98C2.21 8.98 2.5 8.94 2.78 8.87C1.27 8.57 0.15 7.25 0.15 5.65L0.15 5.61C0.58 5.86 1.09 6.01 1.63 6.03C0.75 5.44 0.17 4.44 0.17 3.3C0.17 2.69 0.33 2.13 0.61 1.64C2.23 3.63 4.65 4.93 7.38 5.08C7.32 4.83 7.29 4.58 7.29 4.32C7.29 2.52 8.76 1.05 10.57 1.05C11.52 1.05 12.37 1.44 12.97 2.08C13.71 1.94 14.42 1.66 15.05 1.29C14.81 2.05 14.29 2.69 13.61 3.1C14.27 3.03 14.91 2.84 15.5 2.59C15.05 3.24 14.49 3.82 13.85 4.28Z" fill="#FFFFFF" fill-opacity="1.000000" fill-rule="nonzero"/>
</svg>
