<svg width="20" height="20" viewBox="0 0 20 20" fill="none" xmlns="http://www.w3.org/2000/svg">
<path d="M19.2051 10.0479C19.2051 15.1306 15.0847 19.251 10.002 19.251C4.91919 19.251 0.798828 15.1306 0.798828 10.0479C0.798828 4.96509 4.91919 0.844727 10.002 0.844727C15.0847 0.844727 19.2051 4.96509 19.2051 10.0479ZM8.93743 14.9208L15.7656 8.09271C15.9974 7.86085 15.9974 7.48489 15.7656 7.25303L14.9259 6.41336C14.694 6.18146 14.3181 6.18146 14.0862 6.41336L8.51758 11.9819L5.91773 9.38207C5.68587 9.15021 5.30992 9.15021 5.07802 9.38207L4.23835 10.2217C4.00649 10.4536 4.00649 10.8296 4.23835 11.0614L8.09772 14.9208C8.32962 15.1527 8.70554 15.1527 8.93743 14.9208Z" fill="#91CD1A"/>
</svg>
