<svg width="1440.000000" height="688.000000" viewBox="0 0 1440 688" fill="none" xmlns="http://www.w3.org/2000/svg" xmlns:xlink="http://www.w3.org/1999/xlink">
	<desc>
			Created with Pixso.
	</desc>
	<defs>
		<clipPath id="clip11_23">
			<rect id="footer-bg.svg" width="1440.000000" height="688.000000" transform="translate(-0.498047 -0.452148)" fill="white" fill-opacity="0"/>
		</clipPath>
	</defs>
	<g clip-path="url(#clip11_23)">
		<path id="Vector" d="M-0.5 80.39L59.5 100.41C119.5 120.43 239.5 160.46 359.5 150.45C479.5 140.44 599.5 136.39 719.5 86.35C839.5 36.31 959.5 12.28 1079.5 2.27C1199.5 -7.74 1319.5 12.28 1379.5 22.29L1439.5 32.3L1439.5 687.54L1379.5 687.54C1319.5 687.54 1199.5 687.54 1079.5 687.54C959.5 687.54 839.5 687.54 719.5 687.54C599.5 687.54 479.5 687.54 359.5 687.54C239.5 687.54 119.5 687.54 59.5 687.54L-0.5 687.54L-0.5 80.39Z" fill="#3093EE" fill-opacity="1.000000" fill-rule="evenodd"/>
		<path id="Vector" d="M1439.5 260.66L1379.5 276.41C1319.5 292.16 1199.5 323.66 1079.5 319.72C959.5 315.78 839.5 276.41 719.5 240.98C599.5 205.54 479.5 174.04 359.5 158.29C239.5 142.54 119.5 142.54 59.5 142.54L-0.5 142.54L-0.5 687.54L59.5 687.54C119.5 687.54 239.5 687.54 359.5 687.54C479.5 687.54 599.5 687.54 719.5 687.54C839.5 687.54 959.5 687.54 1079.5 687.54C1199.5 687.54 1319.5 687.54 1379.5 687.54L1439.5 687.54L1439.5 260.66Z" fill="#0038C1" fill-opacity="1.000000" fill-rule="evenodd"/>
	</g>
</svg>
