<svg width="137.000000" height="30.000000" viewBox="0 0 137 30" fill="none" xmlns="http://www.w3.org/2000/svg" xmlns:xlink="http://www.w3.org/1999/xlink">
	<desc>
			Created with Pixso.
	</desc>
	<defs>
		<filter id="filter_11_211_dd" x="0.000000" y="0.000000" width="21.865723" height="27.000244" filterUnits="userSpaceOnUse" color-interpolation-filters="sRGB">
			<feFlood flood-opacity="0" result="BackgroundImageFix"/>
			<feColorMatrix in="SourceAlpha" type="matrix" values="0 0 0 0 0 0 0 0 0 0 0 0 0 0 0 0 0 0 127 0" result="hardAlpha"/>
			<feOffset dx="0" dy="2"/>
			<feGaussianBlur stdDeviation="0.333333"/>
			<feComposite in2="hardAlpha" operator="out" k2="-1" k3="1"/>
			<feColorMatrix type="matrix" values="0 0 0 0 0.2 0 0 0 0 0.39216 0 0 0 0 0.51373 0 0 0 1 0"/>
			<feBlend mode="normal" in2="BackgroundImageFix" result="effect_dropShadow_1"/>
			<feBlend mode="normal" in="SourceGraphic" in2="effect_dropShadow_1" result="shape"/>
		</filter>
		<filter id="filter_11_215_dd" x="80.000000" y="2.000000" width="21.865723" height="27.000244" filterUnits="userSpaceOnUse" color-interpolation-filters="sRGB">
			<feFlood flood-opacity="0" result="BackgroundImageFix"/>
			<feColorMatrix in="SourceAlpha" type="matrix" values="0 0 0 0 0 0 0 0 0 0 0 0 0 0 0 0 0 0 127 0" result="hardAlpha"/>
			<feOffset dx="0" dy="2"/>
			<feGaussianBlur stdDeviation="0.333333"/>
			<feComposite in2="hardAlpha" operator="out" k2="-1" k3="1"/>
			<feColorMatrix type="matrix" values="0 0 0 0 0.2 0 0 0 0 0.39216 0 0 0 0 0.51373 0 0 0 1 0"/>
			<feBlend mode="normal" in2="BackgroundImageFix" result="effect_dropShadow_1"/>
			<feBlend mode="normal" in="SourceGraphic" in2="effect_dropShadow_1" result="shape"/>
		</filter>
	</defs>
	<g filter="url(#filter_11_211_dd)">
		<path id="Vector" d="M13.36 0.19C11.98 -0.09 10.45 -0.02 9.42 0.09C9.01 0.13 8.94 0.7 9.32 0.84C9.47 0.89 9.61 0.94 9.75 0.97C13.94 1.84 17.66 5.54 16.62 8.96C15.58 12.37 12.96 12.56 11.09 12.12C9.9 11.84 8.97 13.14 9.63 14.16C11.3 16.75 15.47 16.56 17.22 15.61C19.51 14.37 20.74 11.98 20.85 9.27C21.02 5.18 18.22 1.15 13.36 0.19L13.36 0.19Z" fill="#FFFFFF" fill-opacity="1.000000" fill-rule="nonzero"/>
		<path id="Vector" d="M5.56 15.46C5.16 13.06 5.07 7.93 10.12 6.05C11.04 5.7 13.24 6.06 13.75 6.9L13.76 6.93C13.93 7.21 14.32 7.06 14.3 6.73C14.14 4.19 11.92 2.52 9.43 2.22C6.33 1.85 2.26 3.91 1.19 9.7C0.09 15.67 3.82 21.93 8.9 23.97C9.2 24.09 9.48 23.75 9.29 23.48C8.22 21.98 6.19 19.13 5.57 15.46L5.56 15.46Z" fill="#FFFFFF" fill-opacity="1.000000" fill-rule="nonzero"/>
	</g>
	<g filter="url(#filter_11_215_dd)">
		<path id="Vector" d="M93.36 2.19C91.98 1.91 90.45 1.98 89.42 2.09C89.01 2.13 88.94 2.7 89.32 2.84C89.47 2.89 89.61 2.94 89.75 2.97C93.94 3.84 97.66 7.54 96.62 10.96C95.58 14.37 92.96 14.56 91.09 14.12C89.9 13.84 88.97 15.14 89.63 16.16C91.3 18.75 95.47 18.56 97.22 17.61C99.51 16.37 100.74 13.98 100.85 11.27C101.02 7.18 98.22 3.15 93.36 2.19L93.36 2.19Z" fill="#FFFFFF" fill-opacity="1.000000" fill-rule="nonzero"/>
		<path id="Vector" d="M85.56 17.46C85.16 15.06 85.07 9.93 90.12 8.05C91.04 7.7 93.24 8.06 93.75 8.9L93.76 8.93C93.93 9.21 94.32 9.06 94.3 8.73C94.14 6.19 91.92 4.52 89.43 4.22C86.33 3.85 82.26 5.91 81.19 11.7C80.09 17.67 83.82 23.93 88.9 25.97C89.2 26.09 89.48 25.75 89.29 25.48C88.22 23.98 86.19 21.13 85.57 17.46L85.56 17.46Z" fill="#FFFFFF" fill-opacity="1.000000" fill-rule="nonzero"/>
	</g>
	<path id="rompt ools" d="M125.2 24L125.2 9.54L127.81 9.54L127.81 24L125.2 24ZM69.27 24L69.27 16.64L67.02 16.64L67.02 14.34L69.27 14.34L69.27 10.31L71.9 10.31L71.9 14.34L74.16 14.34L74.16 16.64L71.9 16.64L71.9 24L69.27 24ZM133.06 24.21Q132.66 24.21 132.26 24.16L132.26 24.16Q131.85 24.11 131.45 24C130.92 23.85 130.44 23.65 130 23.38Q129.42 23.04 128.98 22.58L128.98 22.58Q128.92 22.51 128.85 22.44L130.42 20.86C130.75 21.23 131.13 21.51 131.57 21.7C132.02 21.88 132.5 21.97 133.03 21.97C133.46 21.97 133.78 21.91 134 21.8C134.23 21.68 134.34 21.5 134.34 21.26C134.34 20.99 134.22 20.78 133.99 20.64C133.75 20.49 133.45 20.37 133.07 20.26C132.7 20.16 132.31 20.05 131.91 19.93Q131.62 19.84 131.35 19.73Q131.03 19.59 130.73 19.43Q130.51 19.31 130.32 19.14Q130.04 18.9 129.83 18.57Q129.47 18.01 129.47 17.13C129.47 16.52 129.62 15.99 129.92 15.54C130.23 15.08 130.66 14.73 131.22 14.47Q132.06 14.09 133.19 14.09Q134.39 14.09 135.36 14.52Q135.86 14.73 136.27 15.06Q136.66 15.37 136.97 15.78L135.4 17.35C135.1 17 134.77 16.74 134.41 16.58C134.04 16.42 133.64 16.33 133.21 16.33C132.83 16.33 132.53 16.39 132.33 16.51Q132.14 16.63 132.06 16.79Q132.02 16.89 132.02 17.01C132.02 17.25 132.13 17.44 132.36 17.57Q132.72 17.77 133.27 17.93C133.65 18.03 134.04 18.14 134.44 18.27Q134.65 18.33 134.86 18.41Q135.24 18.57 135.6 18.79C135.97 19.02 136.27 19.32 136.5 19.7Q136.86 20.25 136.86 21.13C136.86 22.08 136.52 22.83 135.84 23.38C135.16 23.94 134.23 24.21 133.06 24.21ZM33.35 24.2Q32.2 24.2 31.22 23.77Q30.96 23.66 30.72 23.53Q30.14 23.19 29.67 22.74Q29.21 22.28 28.86 21.71Q28.65 21.34 28.5 20.96Q28.17 20.11 28.17 19.14Q28.17 18.05 28.57 17.14L28.57 17.14Q28.69 16.86 28.85 16.59Q29.13 16.12 29.5 15.74L29.5 15.74Q30.02 15.18 30.71 14.79Q31.04 14.6 31.38 14.47Q32.29 14.12 33.33 14.12Q34.58 14.12 35.6 14.59Q35.8 14.68 35.99 14.79C36.77 15.23 37.38 15.83 37.84 16.59Q38 16.86 38.12 17.14L38.12 17.14Q38.51 18.05 38.51 19.14C38.51 20.08 38.29 20.94 37.84 21.71C37.38 22.47 36.77 23.08 35.99 23.53Q35.74 23.66 35.49 23.77Q34.51 24.2 33.35 24.2ZM107.77 24.2C106.8 24.2 105.92 23.97 105.14 23.53Q104.56 23.19 104.09 22.74L104.09 22.74Q103.63 22.28 103.28 21.71Q103.07 21.34 102.92 20.96Q102.59 20.11 102.59 19.14C102.59 18.19 102.82 17.34 103.27 16.59Q103.55 16.12 103.92 15.74Q104.44 15.18 105.13 14.79Q105.46 14.6 105.8 14.47L105.8 14.47Q106.71 14.12 107.75 14.12Q109 14.12 110.02 14.59Q110.22 14.68 110.41 14.79C111.19 15.23 111.8 15.83 112.26 16.59C112.71 17.34 112.93 18.19 112.93 19.14C112.93 20.08 112.71 20.94 112.26 21.71C111.8 22.47 111.19 23.08 110.41 23.53C109.62 23.97 108.75 24.2 107.77 24.2ZM118.75 24.2C117.78 24.2 116.9 23.97 116.12 23.53Q115.54 23.19 115.07 22.74L115.07 22.74Q114.61 22.28 114.26 21.71Q114.05 21.34 113.9 20.96Q113.57 20.11 113.57 19.14C113.57 18.19 113.8 17.34 114.25 16.59Q114.53 16.12 114.9 15.74Q115.42 15.18 116.11 14.79Q116.44 14.6 116.78 14.47L116.78 14.47Q117.69 14.12 118.73 14.12Q119.98 14.12 121 14.59Q121.2 14.68 121.39 14.79C122.17 15.23 122.78 15.83 123.24 16.59C123.69 17.34 123.91 18.19 123.91 19.14C123.91 20.08 123.69 20.94 123.24 21.71C122.78 22.47 122.17 23.08 121.39 23.53C120.6 23.97 119.73 24.2 118.75 24.2ZM23.77 15.19Q23.78 15.18 23.79 15.17Q24.01 14.91 24.27 14.72Q25.05 14.14 26.27 14.14C26.74 14.14 27.16 14.21 27.53 14.37C27.91 14.52 28.25 14.77 28.55 15.11L26.91 16.99C26.77 16.83 26.59 16.71 26.38 16.64Q26.07 16.51 25.67 16.51Q25.1 16.51 24.67 16.76Q24.47 16.88 24.3 17.05Q23.77 17.57 23.77 18.65L23.77 24L21.16 24L21.16 14.34L23.77 14.34L23.77 15.19ZM46.1 24L46.1 18.3C46.1 17.74 45.92 17.3 45.56 16.99C45.21 16.67 44.78 16.51 44.26 16.51C43.91 16.51 43.59 16.58 43.31 16.72C43.03 16.86 42.81 17.07 42.65 17.33C42.49 17.6 42.41 17.92 42.41 18.3L42.41 24L39.8 24L39.8 14.34L42.41 14.34L42.41 15.17Q42.44 15.15 42.47 15.12Q42.48 15.11 42.49 15.11Q42.81 14.8 43.22 14.59C43.78 14.29 44.41 14.14 45.11 14.14C45.78 14.14 46.39 14.29 46.94 14.59C47.39 14.84 47.77 15.17 48.07 15.59Q48.28 15.33 48.53 15.11Q48.86 14.82 49.26 14.61Q49.4 14.53 49.56 14.46Q50.32 14.14 51.21 14.14C51.94 14.14 52.58 14.29 53.16 14.59C53.73 14.89 54.18 15.32 54.51 15.87C54.85 16.43 55.02 17.1 55.02 17.88L55.02 24L52.39 24L52.39 18.3C52.39 17.74 52.22 17.3 51.86 16.99C51.51 16.67 51.07 16.51 50.55 16.51C50.22 16.51 49.91 16.58 49.63 16.72C49.34 16.86 49.12 17.07 48.95 17.33C48.79 17.6 48.71 17.92 48.71 18.3L48.71 24L46.1 24ZM62.09 24.2C61.4 24.2 60.77 24.05 60.21 23.77C59.88 23.6 59.59 23.39 59.33 23.15L59.33 28.03L56.74 28.03L56.74 14.34L59.35 14.34L59.35 15.2C59.61 14.96 59.9 14.75 60.22 14.58C60.78 14.28 61.4 14.14 62.09 14.14Q63.09 14.14 63.92 14.5Q64.22 14.62 64.5 14.8Q64.88 15.03 65.2 15.34L65.2 15.34Q65.78 15.87 66.17 16.6C66.57 17.36 66.78 18.22 66.78 19.18C66.78 20.12 66.57 20.98 66.17 21.74Q65.78 22.45 65.22 22.98Q64.89 23.29 64.5 23.54Q64.22 23.71 63.92 23.84Q63.09 24.2 62.09 24.2ZM61.63 21.77C62.12 21.77 62.54 21.66 62.91 21.45C63.29 21.22 63.58 20.92 63.78 20.53C63.99 20.13 64.1 19.68 64.1 19.16C64.1 18.65 63.99 18.2 63.78 17.8C63.58 17.41 63.29 17.1 62.91 16.89C62.54 16.66 62.12 16.55 61.63 16.55Q61.12 16.55 60.68 16.74L60.68 16.74Q60.52 16.8 60.37 16.89C60 17.1 59.71 17.41 59.5 17.8Q59.19 18.39 59.19 19.16C59.19 19.68 59.3 20.13 59.5 20.53C59.71 20.92 60 21.22 60.37 21.45C60.73 21.66 61.16 21.77 61.63 21.77ZM33.33 21.75C33.83 21.75 34.26 21.64 34.64 21.43Q34.91 21.27 35.12 21.05Q35.36 20.81 35.52 20.5Q35.83 19.91 35.83 19.16Q35.83 18.39 35.51 17.82C35.3 17.43 35.01 17.13 34.63 16.91Q34.61 16.89 34.58 16.87L34.58 16.87Q34.04 16.57 33.33 16.57Q32.74 16.57 32.25 16.8L32.25 16.8Q32.15 16.85 32.05 16.91C31.68 17.13 31.39 17.43 31.17 17.82Q30.85 18.39 30.85 19.16C30.85 19.66 30.96 20.11 31.17 20.5Q31.37 20.86 31.65 21.13L31.65 21.13Q31.84 21.3 32.05 21.43Q32.14 21.47 32.22 21.52Q32.72 21.75 33.33 21.75ZM107.75 21.75C108.25 21.75 108.69 21.64 109.06 21.43Q109.33 21.27 109.55 21.05Q109.78 20.81 109.94 20.5C110.15 20.11 110.25 19.66 110.25 19.16Q110.25 18.39 109.93 17.82C109.72 17.43 109.43 17.13 109.05 16.91C108.68 16.68 108.25 16.57 107.75 16.57C107.28 16.57 106.85 16.68 106.47 16.91C106.1 17.13 105.81 17.43 105.59 17.82C105.38 18.2 105.27 18.65 105.27 19.16C105.27 19.66 105.38 20.11 105.59 20.5C105.81 20.9 106.1 21.21 106.47 21.43C106.85 21.64 107.28 21.75 107.75 21.75ZM118.73 21.75C119.23 21.75 119.67 21.64 120.04 21.43Q120.31 21.27 120.53 21.05Q120.76 20.81 120.92 20.5C121.13 20.11 121.23 19.66 121.23 19.16Q121.23 18.39 120.91 17.82C120.7 17.43 120.41 17.13 120.03 16.91C119.66 16.68 119.23 16.57 118.73 16.57C118.26 16.57 117.83 16.68 117.45 16.91C117.08 17.13 116.79 17.43 116.57 17.82C116.36 18.2 116.25 18.65 116.25 19.16C116.25 19.66 116.36 20.11 116.57 20.5C116.79 20.9 117.08 21.21 117.45 21.43C117.83 21.64 118.26 21.75 118.73 21.75Z" fill="#FFFFFF" fill-opacity="1.000000" fill-rule="evenodd"/>
</svg>
