<svg width="208.000000" height="53.000000" viewBox="0 0 208 53" fill="none" xmlns="http://www.w3.org/2000/svg" xmlns:xlink="http://www.w3.org/1999/xlink">
	<desc>
			Created with Pixso.
	</desc>
	<defs/>
	<path id="Item → Link → Features" d="M195.24 47L192.48 47L192.48 28.76L195.24 28.76L195.24 47ZM108.64 45Q108.98 45 109.31 44.96Q109.51 44.94 109.71 44.9Q110.23 44.8 110.67 44.66L110.67 46.75Q110.21 46.95 109.48 47.09Q108.76 47.23 107.97 47.23Q106.87 47.23 105.99 46.86Q105.73 46.75 105.51 46.6Q104.96 46.23 104.6 45.59Q104.08 44.69 104.08 43.09L104.08 36.12L102.31 36.12L102.31 34.89L104.21 33.92L105.11 31.14L106.85 31.14L106.85 34.02L110.56 34.02L110.56 36.12L106.85 36.12L106.85 43.06Q106.85 44.04 107.34 44.52L107.34 44.52Q107.45 44.63 107.58 44.72L107.58 44.72Q108.01 45 108.64 45ZM47.54 33.78Q47.87 33.78 48.25 33.81Q48.64 33.85 48.92 33.91L48.66 36.48Q48.42 36.41 48.06 36.38Q47.7 36.34 47.42 36.34Q46.81 36.34 46.25 36.51L46.25 36.51Q46.13 36.54 46.01 36.58Q45.67 36.71 45.37 36.89L45.37 36.89Q45.08 37.07 44.83 37.31Q44.32 37.8 44.02 38.52Q43.73 39.25 43.73 40.21L43.73 47L40.96 47L40.96 34.02L43.12 34.02L43.5 36.31L43.62 36.31Q43.69 36.19 43.76 36.07L43.76 36.07Q44.11 35.52 44.58 35.04Q44.82 34.8 45.09 34.6Q45.47 34.32 45.9 34.12Q45.96 34.1 46.01 34.07L46.01 34.07Q46.71 33.78 47.54 33.78ZM62.81 40.48Q62.81 42.1 62.39 43.35Q61.96 44.6 61.16 45.47Q60.9 45.74 60.61 45.97L60.61 45.97Q59.98 46.47 59.21 46.78Q58.07 47.23 56.64 47.23Q55.31 47.23 54.19 46.78Q53.56 46.52 53.02 46.13L53.02 46.13L53.02 46.13Q52.61 45.83 52.27 45.47Q51.45 44.6 51.01 43.35Q50.56 42.1 50.56 40.48Q50.56 38.33 51.31 36.84Q51.78 35.88 52.52 35.22L52.52 35.22Q52.94 34.84 53.43 34.56Q54.82 33.78 56.73 33.78Q58.43 33.78 59.76 34.49L59.76 34.49Q59.83 34.52 59.89 34.56Q60.3 34.79 60.65 35.09Q61.49 35.79 62.03 36.85Q62.81 38.35 62.81 40.48ZM80.63 33.78Q82.74 33.78 83.85 34.83Q83.88 34.86 83.92 34.9Q85.03 36.03 85.03 38.51L85.03 47L82.27 47L82.27 39Q82.27 37.53 81.7 36.78Q81.56 36.6 81.39 36.46Q80.84 36.03 79.95 36.03Q78.68 36.03 77.96 36.66Q77.75 36.84 77.59 37.08Q76.87 38.12 76.87 40.12L76.87 47L74.12 47L74.12 39Q74.12 38.02 73.86 37.36Q73.65 36.79 73.24 36.47L73.24 36.47Q73.17 36.41 73.1 36.36Q72.58 36.03 71.8 36.03Q70.66 36.03 69.99 36.54Q69.97 36.55 69.96 36.56Q69.31 37.07 69.02 38.06Q68.73 39.06 68.73 40.51L68.73 47L65.97 47L65.97 34.02L68.12 34.02L68.5 35.77L68.66 35.77Q69.02 35.15 69.54 34.73Q69.59 34.69 69.65 34.65Q69.8 34.53 69.97 34.43L69.97 34.43Q70.43 34.15 70.96 33.99Q71.03 33.97 71.09 33.96L71.09 33.96Q71.76 33.78 72.48 33.78Q73.93 33.78 74.92 34.29Q75.35 34.5 75.68 34.82Q76.13 35.24 76.41 35.84L76.62 35.84Q76.95 35.27 77.42 34.86Q77.82 34.51 78.32 34.28Q78.78 34.07 79.26 33.95Q79.92 33.78 80.63 33.78ZM95.53 33.78Q96.84 33.78 97.87 34.33Q98.63 34.74 99.24 35.46Q100.64 37.15 100.64 40.48Q100.64 42.68 99.99 44.19Q99.36 45.63 98.27 46.39Q98.22 46.43 98.17 46.46Q97.94 46.61 97.69 46.74L97.69 46.74Q96.7 47.23 95.46 47.23Q94.47 47.23 93.75 46.97Q93.02 46.71 92.5 46.3Q91.99 45.88 91.64 45.39L91.47 45.39Q91.53 45.86 91.58 46.43Q91.64 47 91.64 47.46L91.64 52.75L88.87 52.75L88.87 34.02L91.12 34.02L91.51 35.82L91.64 35.82Q92 35.26 92.52 34.8Q93.04 34.33 93.79 34.05Q94.53 33.78 95.53 33.78ZM174.66 40.48Q174.66 42.1 174.24 43.35Q173.82 44.6 173.01 45.47Q172.75 45.74 172.46 45.97Q171.84 46.47 171.07 46.78Q169.93 47.23 168.5 47.23Q167.16 47.23 166.05 46.78Q165.41 46.52 164.87 46.13Q164.47 45.83 164.12 45.47Q163.31 44.6 162.86 43.35Q162.42 42.1 162.42 40.48Q162.42 38.33 163.16 36.84Q163.64 35.88 164.38 35.22Q164.79 34.84 165.29 34.56Q166.67 33.78 168.58 33.78Q170.29 33.78 171.61 34.49Q171.68 34.52 171.75 34.56Q172.15 34.79 172.51 35.09Q173.35 35.79 173.89 36.85Q174.66 38.35 174.66 40.48ZM189.31 40.48Q189.31 42.1 188.89 43.35Q188.47 44.6 187.66 45.47Q187.4 45.74 187.11 45.97Q186.49 46.47 185.71 46.78Q184.58 47.23 183.15 47.23Q181.81 47.23 180.7 46.78Q180.06 46.52 179.52 46.13Q179.12 45.83 178.77 45.47Q177.96 44.6 177.51 43.35Q177.07 42.1 177.07 40.48Q177.07 38.33 177.81 36.84Q178.29 35.88 179.03 35.22L179.03 35.22Q179.44 34.84 179.94 34.56Q181.32 33.78 183.23 33.78Q184.94 33.78 186.26 34.49Q186.33 34.52 186.39 34.56Q186.8 34.79 187.16 35.09Q188 35.79 188.54 36.85Q189.31 38.35 189.31 40.48ZM207.89 43.29Q207.89 44.49 207.34 45.33Q207.31 45.39 207.27 45.45Q207.24 45.49 207.21 45.53Q206.59 46.35 205.45 46.78Q204.27 47.23 202.54 47.23Q201.18 47.23 200.2 47.04Q199.23 46.84 198.36 46.44L198.36 44.07Q199.28 44.5 200.44 44.82Q201.59 45.13 202.62 45.13Q203.98 45.13 204.58 44.7Q204.9 44.48 205.05 44.17Q205.18 43.89 205.18 43.56Q205.18 43.32 205.1 43.11Q205.04 42.95 204.94 42.81Q204.7 42.47 204.05 42.11Q203.4 41.76 202.14 41.25Q200.91 40.76 200.07 40.27Q199.23 39.78 198.79 39.08Q198.36 38.38 198.36 37.29Q198.36 36.33 198.79 35.62Q199.12 35.07 199.72 34.67Q201.09 33.78 203.34 33.78Q204.53 33.78 205.6 34.02Q206.66 34.26 207.68 34.71L206.81 36.79Q205.93 36.4 205.04 36.15Q204.53 36 204 35.94L204 35.94Q203.63 35.9 203.25 35.9Q202.18 35.9 201.62 36.23Q201.31 36.41 201.17 36.68Q201.07 36.89 201.07 37.16Q201.07 37.48 201.2 37.73Q201.25 37.84 201.34 37.94Q201.6 38.25 202.27 38.57Q202.93 38.89 204.11 39.35Q205.27 39.8 206.12 40.29Q206.97 40.77 207.43 41.48Q207.89 42.18 207.89 43.29ZM94.79 36.03Q93.65 36.03 92.97 36.48Q92.86 36.55 92.76 36.63L92.76 36.63Q92.23 37.07 91.97 37.83Q91.66 38.73 91.64 40.09L91.64 40.48Q91.64 41.92 91.93 42.92Q92.21 43.85 92.84 44.37L92.84 44.37Q92.88 44.41 92.93 44.45Q93.63 44.97 94.82 44.97Q95.65 44.97 96.25 44.59Q96.38 44.51 96.49 44.42Q97.16 43.87 97.48 42.85Q97.81 41.83 97.81 40.44Q97.81 38.35 97.07 37.19Q96.78 36.74 96.38 36.47Q95.73 36.03 94.79 36.03ZM53.4 40.48Q53.4 41.9 53.74 42.91Q54.07 43.85 54.72 44.38Q54.77 44.41 54.82 44.45Q55.54 44.98 56.69 44.98Q57.84 44.98 58.57 44.45Q58.62 44.41 58.67 44.36L58.67 44.36Q59.32 43.84 59.63 42.91Q59.97 41.9 59.97 40.48Q59.97 39.06 59.63 38.07Q59.33 37.18 58.71 36.67Q58.64 36.61 58.57 36.56Q57.84 36.04 56.68 36.04Q55.43 36.04 54.68 36.65Q54.4 36.87 54.18 37.19Q53.4 38.33 53.4 40.48ZM165.25 40.48Q165.25 41.9 165.6 42.91Q165.92 43.85 166.58 44.38L166.58 44.38Q166.63 44.41 166.67 44.45Q167.4 44.98 168.55 44.98Q169.69 44.98 170.42 44.45Q170.48 44.41 170.53 44.36Q171.17 43.84 171.49 42.91Q171.83 41.9 171.83 40.48Q171.83 39.06 171.49 38.07Q171.18 37.18 170.56 36.67Q170.49 36.61 170.42 36.56Q169.69 36.04 168.53 36.04Q167.29 36.04 166.53 36.65Q166.25 36.87 166.04 37.19Q165.25 38.33 165.25 40.48ZM179.9 40.48Q179.9 41.9 180.25 42.91Q180.57 43.85 181.23 44.38Q181.27 44.41 181.32 44.45Q182.05 44.98 183.19 44.98Q184.34 44.98 185.07 44.45Q185.12 44.41 185.18 44.36Q185.82 43.84 186.14 42.91Q186.48 41.9 186.48 40.48Q186.48 39.06 186.14 38.07Q185.83 37.18 185.21 36.67Q185.14 36.61 185.07 36.56Q184.34 36.04 183.18 36.04Q181.94 36.04 181.18 36.65Q180.9 36.87 180.69 37.19Q179.9 38.33 179.9 40.48Z" fill="#212B36" fill-opacity="1.000000" fill-rule="evenodd"/>
	<path id="Vector" d="M25.76 0.39C22.88 -0.18 19.69 -0.03 17.54 0.2C16.69 0.29 16.55 1.46 17.34 1.76C17.64 1.87 17.94 1.97 18.22 2.02C26.96 3.83 34.71 11.55 32.55 18.67C30.38 25.79 24.91 26.18 21.02 25.26C18.55 24.68 16.62 27.39 17.98 29.51C21.47 34.91 30.15 34.5 33.79 32.53C38.57 29.94 41.13 24.97 41.37 19.31C41.72 10.8 35.87 2.41 25.75 0.39L25.76 0.39Z" fill="#1EA2DA" fill-opacity="1.000000" fill-rule="nonzero"/>
	<path id="Vector" d="M9.51 32.22C8.67 27.22 8.48 16.53 19 12.6C20.92 11.88 25.5 12.62 26.56 14.38L26.59 14.44C26.95 15.03 27.75 14.71 27.71 14.02C27.37 8.74 22.75 5.25 17.56 4.63C11.12 3.86 2.63 8.15 0.4 20.21C-1.9 32.65 5.89 45.69 16.47 49.94C17.09 50.19 17.68 49.48 17.28 48.92C15.05 45.8 10.81 39.86 9.53 32.22L9.51 32.22Z" fill="#1EA2DA" fill-opacity="1.000000" fill-rule="nonzero"/>
	<path id="Vector" d="M155.76 0.39C152.88 -0.18 149.69 -0.03 147.54 0.2C146.69 0.29 146.55 1.46 147.34 1.76C147.64 1.87 147.94 1.97 148.22 2.02C156.96 3.83 164.71 11.55 162.55 18.67C160.38 25.79 154.91 26.18 151.02 25.26C148.56 24.68 146.62 27.39 147.98 29.51C151.47 34.91 160.15 34.5 163.79 32.53C168.57 29.94 171.13 24.97 171.37 19.31C171.72 10.8 165.87 2.41 155.75 0.39L155.76 0.39Z" fill="#1EA2DA" fill-opacity="1.000000" fill-rule="nonzero"/>
	<path id="Vector" d="M139.51 32.22C138.67 27.22 138.48 16.53 149 12.6C150.92 11.88 155.5 12.62 156.56 14.38L156.59 14.44C156.95 15.03 157.75 14.71 157.71 14.02C157.38 8.74 152.75 5.25 147.56 4.63C141.12 3.86 132.63 8.15 130.4 20.21C128.1 32.65 135.89 45.69 146.47 49.94C147.1 50.19 147.68 49.48 147.28 48.92C145.05 45.8 140.81 39.86 139.53 32.22L139.51 32.22Z" fill="#1EA2DA" fill-opacity="1.000000" fill-rule="nonzero"/>
</svg>
